<?xml version="1.0" encoding="utf-8"?>
<!-- Generator: Adobe Illustrator 19.2.1, SVG Export Plug-In . SVG Version: 6.00 Build 0)  -->
<svg version="1.1" id="Layer_1" xmlns="http://www.w3.org/2000/svg" xmlns:xlink="http://www.w3.org/1999/xlink" x="0px" y="0px"
	 viewBox="0 0 767.3 166.5" style="enable-background:new 0 0 767.3 166.5;" xml:space="preserve">
<style type="text/css">
	.st0{fill:none;stroke:#000000;stroke-width:2;stroke-miterlimit:10;}
	.st1{fill:#FFFFFF;}
	.st2{fill:#FFFFFF;stroke:#FFFFFF;stroke-width:2;stroke-miterlimit:10;}
</style>
<g>
	<g>
		<path d="M111.5,56.5c0-7.1-5.8-12.9-12.9-12.9H46.3c-16.3,0-28.3,10.8-29,25.8h81.2C105.7,69.4,111.5,63.7,111.5,56.5L111.5,56.5z
			 M91.4,93.7l-11.9-5.6H23.3c3.4,3.9,7.9,6.4,12.3,8.4l42.7,20.1c6.1,2.8,7.1,4.6,7.1,5.4c0,2.1-0.4,2.9-1.2,3.7
			c-1.6,1.6-5.6,1.6-8.9,1.6l-44.6,0v0c-7.3,0-13.1,5.9-13.1,13.1c0,7.3,5.9,13.1,13.1,13.1h47.1c21.3,0,33.9-11,33.9-30.5
			C111.6,109.1,105.4,100,91.4,93.7L91.4,93.7z M376.3,43.3h-6V12.6c-6.9,0-26.1,6.9-26.1,28v85.3c0,18.4,16.4,28,26.1,28V69.4h6
			c7.2,0,13-5.8,13-13.1C389.3,49.2,383.5,43.3,376.3,43.3L376.3,43.3z M414.7,42.3c-7.2,0-13,5.8-13,13l0,85.5c0,7.2,5.8,13,13,13
			c7.2,0,13-5.8,13-13l0-85.5C427.8,48.1,421.9,42.3,414.7,42.3L414.7,42.3z M305.7,12.6c-7.2,0-13,5.8-13,13l0,115.2
			c0,7.2,5.8,13,13,13c7.2,0,13-5.8,13-13l0-115.2C318.8,18.4,312.9,12.6,305.7,12.6L305.7,12.6z M539.4,132.6l-28.9-34.5l28.9-34.5
			c4.6-5.5,3.9-13.7-1.6-18.4c-1.6-1.4-3.5-2.2-5.5-2.7c-4.6-1-9.6,0.4-12.9,4.3c0,0,0,0,0,0l-26,31l-26-31c0,0,0,0,0,0
			c-3.3-3.9-8.3-5.3-12.9-4.3c-2,0.4-3.8,1.3-5.5,2.7c-5.5,4.6-6.2,12.8-1.6,18.4l28.9,34.5l-28.9,34.5c-4.6,5.5-3.9,13.7,1.6,18.4
			c1.7,1.4,3.5,2.2,5.5,2.7c4.6,1.1,9.6-0.4,12.9-4.3l26-31l26,31c3.3,3.9,8.3,5.3,12.9,4.3c1.9-0.4,3.8-1.3,5.5-2.7
			C543.3,146.3,544,138.1,539.4,132.6L539.4,132.6z M128.8,125.9c0,18.4,16.4,28,26.1,28V88.1h-26.1V125.9L128.8,125.9z M160.9,43.3
			h-6V12.6c-6.9,0-26.1,6.9-26.1,28v28.8h32c7.2,0,13-5.8,13-13.1C173.9,49.2,168.1,43.3,160.9,43.3L160.9,43.3z M237.1,43.4
			l-16.1,0c-24.1,0-35.6,10.8-39.8,26h53.3c11.9,0,15.6,5.6,15.7,14.3v4.4h-70.9v23.8c0,23,9.1,41.7,41,41.7l30.4,0
			c7.2,0,13-5.8,13-13c0-7.2-5.8-13-13-13h-29.8c-16.1,0-15.1-12.4-14.5-17.1h47.9c15.1,0,20.6-4.3,20.6-19.3v-6
			C274.9,62.1,263.4,43.4,237.1,43.4L237.1,43.4z"/>
	</g>
	<g>
		<path d="M569.5,120.4V79.2c0-1.8,0.5-3.2,1.6-4.2c1-1,2.4-1.5,4-1.5c1.6,0,3,0.5,4,1.5c1,1,1.5,2.4,1.5,4.2v37.1h13.2
			c1.8,0,3.1,0.5,4,1.6c0.9,1.1,1.3,2.3,1.3,3.7c-0.1,1.3-0.6,2.4-1.6,3.4c-1,1-2.2,1.5-3.8,1.5h-18.5c-1.8,0-3.2-0.5-4.2-1.6
			C570,123.7,569.5,122.3,569.5,120.4z"/>
		<path d="M605.6,119.3l14.9-40.2c0.7-1.9,1.7-3.3,3.1-4.5c1.4-1.1,3-1.7,4.8-1.7c1.9,0,3.5,0.6,4.9,1.7c1.4,1.1,2.4,2.6,3,4.5
			l14.5,40.2c0.4,1.1,0.6,2,0.6,2.7c0,0.9-0.2,1.8-0.7,2.5s-1.1,1.3-1.9,1.7s-1.6,0.6-2.5,0.6c-2.7,0-4.5-1.3-5.4-3.8l-2.2-6.9
			h-20.5l-2.2,6.9c-0.8,2.6-2.6,3.9-5.3,3.9c-1.5,0-2.8-0.5-3.9-1.5c-1.1-1-1.6-2.2-1.6-3.7C605.1,121.1,605.3,120.2,605.6,119.3z
			 M628.3,84.5l-7,21.4h14l-6.9-21.4H628.3z"/>
		<path d="M662.2,120.8V79.4c0-1.7,0.5-3.1,1.6-4.1c1.1-1,2.5-1.5,4.2-1.5h14.2c2.5,0,4.9,0.5,7,1.6c2.1,1.1,3.8,2.6,5,4.6
			s1.9,4.2,1.9,6.8c0,5.1-2.3,8.7-6.9,10.9v0.1c1.5,0.2,3,0.7,4.4,1.4c1.4,0.7,2.6,1.7,3.6,2.8c1,1.1,1.8,2.4,2.4,3.8
			s0.8,2.9,0.8,4.6c0,5.1-1.6,9-4.7,11.8s-7.3,4.2-12.5,4.2h-15.2c-1.7,0-3.2-0.5-4.3-1.6C662.8,123.9,662.2,122.5,662.2,120.8z
			 M673.3,83.6v11.1h5.8c1.8,0,3.3-0.5,4.4-1.5s1.6-2.4,1.6-4.3c0-1.7-0.6-3-1.7-3.9c-1.1-0.9-2.6-1.4-4.3-1.4H673.3z M673.3,104.4
			v12.3h8.7c2.1,0,3.7-0.6,5-1.7c1.3-1.1,1.9-2.7,1.9-4.8c0-1.8-0.7-3.2-2-4.2c-1.3-1-3.3-1.6-5.9-1.6H673.3z"/>
		<path d="M728.6,73c1.7,0,3.7,0.2,6,0.7c2.3,0.5,4.3,1.3,6,2.4c1.7,1.1,2.5,2.5,2.5,4.3c0,1.5-0.5,2.8-1.4,3.9
			c-0.9,1.1-2.1,1.6-3.6,1.6c-0.7,0-1.4-0.1-2.2-0.4c-0.8-0.3-1.6-0.5-2.4-0.8s-1.7-0.6-2.5-0.7c-0.8-0.2-1.7-0.3-2.7-0.3
			c-1.7,0-3.1,0.4-4.3,1.3c-1.2,0.9-1.8,2-1.8,3.5c0,1.6,1.3,2.9,4,3.8c2.7,0.9,5.7,2,8.9,3c3.3,1.1,6.1,2.8,8.3,5
			c2.3,2.3,3.4,5.6,3.4,9.9c0,3.4-0.9,6.4-2.6,9c-1.7,2.6-4,4.6-6.9,6.1c-2.9,1.4-6,2.1-9.4,2.1c-4.2,0-8.3-0.6-12.1-1.9
			s-5.8-3.4-5.8-6.4c0-1.5,0.5-2.7,1.4-3.7s2.1-1.5,3.6-1.5c0.7,0,1.5,0.1,2.4,0.4s2,0.6,3.3,1.1s2.5,0.8,3.5,1.1
			c1,0.3,2.1,0.4,3.2,0.4c1.6,0,2.9-0.3,4.1-0.8s2-1.3,2.6-2.3c0.6-1,0.9-2.1,0.9-3.3c0-1.9-0.7-3.1-2-3.7s-4.3-1.6-9-3.1
			c-4.7-1.5-8.2-3.2-10.4-5.2s-3.3-4.8-3.3-8.7c0-3.4,0.8-6.3,2.5-8.9s3.9-4.5,6.7-5.9C722.3,73.7,725.4,73,728.6,73z"/>
	</g>
</g>
</svg>
